<svg xmlns="http://www.w3.org/2000/svg" width="1440" height="720" viewBox="0 0 1440 720" role="img" aria-labelledby="title description">
  <title id="title">PromptSoul — AI Live2D NPC Lab</title>
  <desc id="description">PromptSoul brand banner describing a local-first AI NPC and safe prompt-to-motion generation.</desc>
  <defs>
    <linearGradient id="background" x1="0" y1="0" x2="1" y2="1">
      <stop offset="0" stop-color="#090a12" />
      <stop offset="0.55" stop-color="#111326" />
      <stop offset="1" stop-color="#0a1420" />
    </linearGradient>
    <linearGradient id="accent" x1="0" y1="0" x2="1" y2="0">
      <stop offset="0" stop-color="#8d5cff" />
      <stop offset="0.55" stop-color="#b78cff" />
      <stop offset="1" stop-color="#67f6c4" />
    </linearGradient>
    <radialGradient id="glow">
      <stop offset="0" stop-color="#8d5cff" stop-opacity="0.34" />
      <stop offset="1" stop-color="#8d5cff" stop-opacity="0" />
    </radialGradient>
    <pattern id="grid" width="48" height="48" patternUnits="userSpaceOnUse">
      <path d="M48 0H0V48" fill="none" stroke="#ffffff" stroke-opacity="0.035" />
    </pattern>
  </defs>

  <rect width="1440" height="720" rx="36" fill="url(#background)" />
  <rect width="1440" height="720" rx="36" fill="url(#grid)" />
  <circle cx="1110" cy="350" r="360" fill="url(#glow)" />

  <g transform="translate(96 84)">
    <rect width="76" height="76" rx="24" fill="#16182b" stroke="#8d5cff" stroke-opacity="0.65" />
    <rect x="18" y="25" width="8" height="27" rx="4" fill="#78f3c5" />
    <rect x="34" y="16" width="8" height="45" rx="4" fill="#a87cff" />
    <rect x="50" y="25" width="8" height="27" rx="4" fill="#78f3c5" />
    <text x="98" y="35" fill="#f8f7ff" font-family="Inter, ui-sans-serif, system-ui, sans-serif" font-size="34" font-weight="700">PromptSoul</text>
    <text x="99" y="60" fill="#a9a7bd" font-family="Inter, ui-sans-serif, system-ui, sans-serif" font-size="15" letter-spacing="5">AI LIVE2D NPC LAB</text>
  </g>

  <g transform="translate(98 246)">
    <text fill="#f8f7ff" font-family="Inter, ui-sans-serif, system-ui, sans-serif" font-size="82" font-weight="760" letter-spacing="-3">Give AI characters</text>
    <text y="96" fill="url(#accent)" font-family="Inter, ui-sans-serif, system-ui, sans-serif" font-size="82" font-weight="760" letter-spacing="-3">a visible soul.</text>
    <text y="160" fill="#b9b8c9" font-family="Inter, ui-sans-serif, system-ui, sans-serif" font-size="24">Local-first · Emotion-driven Live2D · Safe motion generation</text>
  </g>

  <g transform="translate(98 515)" font-family="Inter, ui-sans-serif, system-ui, sans-serif" font-size="15" font-weight="650" letter-spacing="1.5">
    <g>
      <rect width="176" height="50" rx="25" fill="#ffffff" fill-opacity="0.055" stroke="#ffffff" stroke-opacity="0.12" />
      <circle cx="27" cy="25" r="5" fill="#67f6c4" />
      <text x="45" y="31" fill="#e7e5f1">LOCAL-FIRST</text>
    </g>
    <g transform="translate(192)">
      <rect width="252" height="50" rx="25" fill="#ffffff" fill-opacity="0.055" stroke="#ffffff" stroke-opacity="0.12" />
      <circle cx="27" cy="25" r="5" fill="#a87cff" />
      <text x="45" y="31" fill="#e7e5f1">SAFE MOTION COMPILER</text>
    </g>
    <g transform="translate(460)">
      <rect width="218" height="50" rx="25" fill="#ffffff" fill-opacity="0.055" stroke="#ffffff" stroke-opacity="0.12" />
      <circle cx="27" cy="25" r="5" fill="#67f6c4" />
      <text x="45" y="31" fill="#e7e5f1">NEXT.JS + LIVE2D</text>
    </g>
  </g>

  <g transform="translate(965 122)">
    <circle cx="230" cy="230" r="194" fill="#0e1120" fill-opacity="0.72" stroke="#8d5cff" stroke-opacity="0.36" stroke-width="2" />
    <circle cx="230" cy="230" r="144" fill="none" stroke="#67f6c4" stroke-opacity="0.18" stroke-width="2" />
    <circle cx="230" cy="230" r="92" fill="#12182a" stroke="#ffffff" stroke-opacity="0.12" />
    <path d="M172 232c20-48 39 48 58 0s39 48 58 0" fill="none" stroke="url(#accent)" stroke-width="12" stroke-linecap="round" />
    <g fill="#67f6c4">
      <circle cx="230" cy="36" r="7" />
      <circle cx="424" cy="230" r="7" />
      <circle cx="230" cy="424" r="7" />
      <circle cx="36" cy="230" r="7" />
    </g>
    <g fill="#a87cff">
      <circle cx="92" cy="92" r="5" />
      <circle cx="368" cy="92" r="5" />
      <circle cx="368" cy="368" r="5" />
      <circle cx="92" cy="368" r="5" />
    </g>
  </g>

  <text x="98" y="664" fill="#77768a" font-family="ui-monospace, SFMono-Regular, Menlo, monospace" font-size="14" letter-spacing="2">OPEN SOURCE · SELF-HOSTED · PROMPTSOUL / 2026</text>
</svg>
